<svg width="379" height="111" viewBox="0 0 379 111" fill="none" xmlns="http://www.w3.org/2000/svg">
<path d="M39.0221 110.288H33.3776V88.5306L26.6393 90.6205V86.0306L38.4166 81.8119H39.0221V110.288Z" fill="black"/>
<path d="M123.437 110.288H103.945V106.421L113.144 96.6166C114.407 95.2364 115.338 94.0319 115.937 93.0033C116.549 91.9747 116.855 90.9981 116.855 90.0736C116.855 88.8106 116.536 87.821 115.898 87.1049C115.26 86.3757 114.348 86.0111 113.164 86.0111C111.888 86.0111 110.878 86.4538 110.136 87.3392C109.407 88.2116 109.042 89.364 109.042 90.7963H103.378C103.378 89.0645 103.789 87.4825 104.609 86.0502C105.442 84.6179 106.614 83.4981 108.124 82.6908C109.635 81.8705 111.347 81.4603 113.261 81.4603C116.191 81.4603 118.463 82.1635 120.078 83.5697C121.705 84.976 122.519 86.9616 122.519 89.5267C122.519 90.933 122.154 92.3653 121.425 93.8236C120.696 95.2819 119.446 96.9812 117.675 98.9213L111.21 105.738H123.437V110.288Z" fill="black"/>
<path d="M186.904 93.5697H189.912C191.344 93.5697 192.405 93.2116 193.095 92.4955C193.785 91.7793 194.13 90.8288 194.13 89.6439C194.13 88.4981 193.785 87.6062 193.095 86.9681C192.418 86.3301 191.481 86.0111 190.283 86.0111C189.202 86.0111 188.297 86.3106 187.568 86.9095C186.839 87.4955 186.474 88.2637 186.474 89.2142H180.83C180.83 87.7299 181.227 86.4017 182.021 85.2299C182.828 84.045 183.948 83.1205 185.38 82.4564C186.826 81.7924 188.414 81.4603 190.146 81.4603C193.154 81.4603 195.511 82.183 197.216 83.6283C198.922 85.0606 199.775 87.0398 199.775 89.5658C199.775 90.8679 199.378 92.0658 198.584 93.1595C197.789 94.2533 196.748 95.0931 195.459 95.6791C197.06 96.252 198.251 97.1114 199.033 98.2572C199.827 99.403 200.224 100.757 200.224 102.32C200.224 104.846 199.3 106.87 197.451 108.394C195.615 109.917 193.18 110.679 190.146 110.679C187.307 110.679 184.983 109.93 183.173 108.433C181.376 106.936 180.478 104.956 180.478 102.495H186.123C186.123 103.563 186.52 104.436 187.314 105.113C188.121 105.79 189.111 106.128 190.283 106.128C191.624 106.128 192.672 105.777 193.427 105.074C194.195 104.357 194.58 103.413 194.58 102.242C194.58 99.403 193.017 97.9838 189.892 97.9838H186.904V93.5697Z" fill="black"/>
<path d="M337.852 96.3041L339.493 81.851H355.43V86.558H344.121L343.418 92.6713C344.759 91.9551 346.185 91.597 347.696 91.597C350.404 91.597 352.526 92.4369 354.063 94.1166C355.599 95.7963 356.368 98.1465 356.368 101.167C356.368 103.003 355.977 104.65 355.196 106.109C354.427 107.554 353.321 108.68 351.875 109.488C350.43 110.282 348.724 110.679 346.758 110.679C345.039 110.679 343.444 110.334 341.973 109.644C340.502 108.941 339.336 107.958 338.477 106.695C337.631 105.432 337.181 103.993 337.129 102.378H342.715C342.832 103.563 343.243 104.488 343.946 105.152C344.662 105.803 345.593 106.128 346.739 106.128C348.015 106.128 348.998 105.673 349.688 104.761C350.378 103.837 350.723 102.535 350.723 100.855C350.723 99.2403 350.326 98.0033 349.532 97.1439C348.737 96.2845 347.611 95.8549 346.153 95.8549C344.812 95.8549 343.724 96.2064 342.891 96.9095L342.344 97.4174L337.852 96.3041Z" fill="black"/>
<ellipse cx="267.425" cy="35.2212" rx="33.6495" ry="33.7981" fill="#FFF06D"/>
<ellipse cx="253.611" cy="25.6154" rx="4.25047" ry="4.26923" fill="black"/>
<ellipse cx="280.531" cy="25.6154" rx="4.25047" ry="4.26923" fill="black"/>
<path d="M284.781 38.4231C284.781 42.3528 276.852 45.5385 267.071 45.5385C257.29 45.5385 249.361 42.3528 249.361 38.4231" stroke="black" stroke-width="5"/>
<ellipse cx="345.35" cy="33.7981" rx="33.6495" ry="33.7981" fill="#FEE500"/>
<ellipse cx="331.536" cy="24.1923" rx="4.25047" ry="4.26923" fill="black"/>
<ellipse cx="358.456" cy="24.1923" rx="4.25047" ry="4.26923" fill="black"/>
<path d="M364.832 34.8654C364.832 45.6721 356.11 54.4327 345.35 54.4327C334.591 54.4327 325.869 45.6721 325.869 34.8654" stroke="black" stroke-width="5"/>
<path d="M275.786 99.5853H279.009V104.136H275.786V110.288H270.142V104.136H258.481L258.227 100.581L270.083 81.851H275.786V99.5853ZM263.852 99.5853H270.142V89.5463L269.77 90.1908L263.852 99.5853Z" fill="black"/>
<ellipse cx="33.6495" cy="34.5096" rx="33.6495" ry="33.7981" fill="#7D99FC"/>
<ellipse cx="19.8355" cy="24.9038" rx="4.25047" ry="4.26923" fill="black"/>
<ellipse cx="46.7551" cy="24.9038" rx="4.25047" ry="4.26923" fill="black"/>
<path d="M14.1682 55.1442C14.1682 44.3375 22.8903 35.5769 33.6495 35.5769C44.4088 35.5769 53.1309 44.3375 53.1309 55.1442" stroke="black" stroke-width="5"/>
<ellipse cx="189.5" cy="33.7981" rx="33.6495" ry="33.7981" fill="#FFF6A2"/>
<ellipse cx="175.686" cy="24.1923" rx="4.25047" ry="4.26923" fill="black"/>
<ellipse cx="202.606" cy="24.1923" rx="4.25047" ry="4.26923" fill="black"/>
<line x1="170.727" y1="42.3269" x2="206.148" y2="42.3269" stroke="black" stroke-width="5"/>
<ellipse cx="111.575" cy="34.5096" rx="33.6495" ry="33.7981" fill="#CCD7FF"/>
<ellipse cx="97.7607" cy="24.9038" rx="4.25047" ry="4.26923" fill="black"/>
<ellipse cx="124.68" cy="24.9038" rx="4.25047" ry="4.26923" fill="black"/>
<path d="M93.5103 45.5385C93.5103 42.3947 101.439 39.8461 111.221 39.8461C121.002 39.8461 128.931 42.3947 128.931 45.5385" stroke="black" stroke-width="5"/>
</svg>
