<svg width="207" height="142" viewBox="0 0 207 142" fill="none" xmlns="http://www.w3.org/2000/svg">
<ellipse opacity="0.3" cx="63.6234" cy="80.3034" rx="17.9221" ry="19.5862" fill="#FEE500"/>
<ellipse opacity="0.3" cx="56.2659" cy="74.7368" rx="2.26384" ry="2.47405" fill="black"/>
<ellipse opacity="0.3" cx="70.6036" cy="74.7368" rx="2.26384" ry="2.47405" fill="black"/>
<path opacity="0.3" d="M73.9993 80.9219C73.9993 87.1845 69.3539 92.2613 63.6234 92.2613C57.8929 92.2613 53.2474 87.1845 53.2474 80.9219" stroke="black" stroke-width="5"/>
<ellipse opacity="0.3" cx="102.156" cy="80.3034" rx="17.9221" ry="19.5862" fill="#FFF06D"/>
<ellipse opacity="0.3" cx="94.7984" cy="74.7368" rx="2.26384" ry="2.47405" fill="black"/>
<ellipse opacity="0.3" cx="109.136" cy="74.7368" rx="2.26384" ry="2.47405" fill="black"/>
<path opacity="0.3" d="M111.4 82.159C111.4 84.4363 107.177 86.2824 101.967 86.2824C96.7577 86.2824 92.5345 84.4363 92.5345 82.159" stroke="black" stroke-width="5"/>
<ellipse opacity="0.3" cx="112.909" cy="42.1103" rx="17.9221" ry="19.5862" fill="#FFF6A2"/>
<ellipse opacity="0.3" cx="105.552" cy="36.5438" rx="2.26384" ry="2.47405" fill="black"/>
<ellipse opacity="0.3" cx="119.889" cy="36.5438" rx="2.26384" ry="2.47405" fill="black"/>
<line opacity="0.3" x1="102.91" y1="46.0016" x2="121.776" y2="46.0016" stroke="black" stroke-width="5"/>
<ellipse opacity="0.3" cx="80.6494" cy="19.5862" rx="17.9221" ry="19.5862" fill="#CCD7FF"/>
<ellipse opacity="0.3" cx="73.2919" cy="14.0196" rx="2.26384" ry="2.47405" fill="black"/>
<ellipse opacity="0.3" cx="87.6296" cy="14.0196" rx="2.26384" ry="2.47405" fill="black"/>
<path opacity="0.3" d="M71.028 25.9775C71.028 24.1557 75.2512 22.6788 80.4607 22.6788C85.6702 22.6788 89.8934 24.1557 89.8934 25.9775" stroke="black" stroke-width="5"/>
<ellipse opacity="0.3" cx="52.8701" cy="45.0483" rx="17.9221" ry="19.5862" fill="#7D99FC"/>
<ellipse opacity="0.3" cx="45.5127" cy="39.4817" rx="2.26384" ry="2.47405" fill="black"/>
<ellipse opacity="0.3" cx="59.8503" cy="39.4817" rx="2.26384" ry="2.47405" fill="black"/>
<path opacity="0.3" d="M42.4942 57.0062C42.4942 50.7436 47.1397 45.6668 52.8702 45.6668C58.6006 45.6668 63.2461 50.7436 63.2461 57.0062" stroke="black" stroke-width="5"/>
<path d="M68.317 39.9902V45H65.3873V30.7812H70.9342C72.0019 30.7812 72.9394 30.9766 73.7467 31.3672C74.5605 31.7578 75.1855 32.3145 75.6217 33.0371C76.0579 33.7533 76.276 34.5703 76.276 35.4883C76.276 36.8815 75.7974 37.9818 74.8404 38.7891C73.8899 39.5898 72.5715 39.9902 70.8853 39.9902H68.317ZM68.317 37.6172H70.9342C71.7089 37.6172 72.2981 37.4349 72.7017 37.0703C73.1119 36.7057 73.317 36.1849 73.317 35.5078C73.317 34.8112 73.1119 34.248 72.7017 33.8184C72.2916 33.3887 71.7252 33.1673 71.0025 33.1543H68.317V37.6172ZM81.0904 45H78.2584V34.4336H81.0904V45ZM78.0924 31.6992C78.0924 31.276 78.2323 30.9277 78.5123 30.6543C78.7987 30.3809 79.1861 30.2441 79.6744 30.2441C80.1562 30.2441 80.5403 30.3809 80.8267 30.6543C81.1132 30.9277 81.2564 31.276 81.2564 31.6992C81.2564 32.1289 81.1099 32.4805 80.817 32.7539C80.5305 33.0273 80.1497 33.1641 79.6744 33.1641C79.1991 33.1641 78.815 33.0273 78.5221 32.7539C78.2356 32.4805 78.0924 32.1289 78.0924 31.6992ZM87.8189 42.9199C88.3398 42.9199 88.7629 42.7767 89.0885 42.4902C89.414 42.2038 89.5833 41.8229 89.5963 41.3477H92.2428C92.2362 42.0638 92.0409 42.7214 91.6568 43.3203C91.2727 43.9128 90.7454 44.375 90.0748 44.707C89.4107 45.0326 88.675 45.1953 87.8678 45.1953C86.3573 45.1953 85.1659 44.7168 84.2935 43.7598C83.4211 42.7962 82.9849 41.4681 82.9849 39.7754V39.5898C82.9849 37.9622 83.4179 36.6634 84.2838 35.6934C85.1497 34.7233 86.3378 34.2383 87.8482 34.2383C89.1698 34.2383 90.2278 34.6159 91.0221 35.3711C91.8228 36.1198 92.2297 37.1191 92.2428 38.3691H89.5963C89.5833 37.8223 89.414 37.3796 89.0885 37.041C88.7629 36.696 88.3333 36.5234 87.7994 36.5234C87.1418 36.5234 86.6438 36.7643 86.3053 37.2461C85.9732 37.7214 85.8072 38.4961 85.8072 39.5703V39.8633C85.8072 40.9505 85.9732 41.7318 86.3053 42.207C86.6373 42.6823 87.1418 42.9199 87.8189 42.9199ZM97.692 40.7617L96.6763 41.7773V45H93.8541V30H96.6763V38.3105L97.2232 37.6074L99.9283 34.4336H103.317L99.4986 38.8379L103.649 45H100.407L97.692 40.7617ZM62.4967 53.7812L66.149 64.0938L69.7818 53.7812H73.6295V68H70.69V64.1133L70.983 57.4043L67.1451 68H65.1334L61.3053 57.4141L61.5982 64.1133V68H58.6685V53.7812H62.4967ZM80.8658 68.1953C79.3163 68.1953 78.0533 67.7201 77.0767 66.7695C76.1067 65.819 75.6217 64.5527 75.6217 62.9707V62.6973C75.6217 61.6361 75.8267 60.6888 76.2369 59.8555C76.6471 59.0156 77.2265 58.3711 77.9752 57.9219C78.7304 57.4661 79.5898 57.2383 80.5533 57.2383C81.9986 57.2383 83.1347 57.694 83.9615 58.6055C84.7948 59.5169 85.2115 60.8092 85.2115 62.4824V63.6348H78.483C78.5741 64.3249 78.8476 64.8783 79.3033 65.2949C79.7655 65.7116 80.3482 65.9199 81.0513 65.9199C82.1386 65.9199 82.9882 65.526 83.6002 64.7383L84.9869 66.291C84.5637 66.89 83.9908 67.3587 83.2681 67.6973C82.5455 68.0293 81.7447 68.1953 80.8658 68.1953ZM80.5435 59.5234C79.9836 59.5234 79.5279 59.7122 79.1763 60.0898C78.8313 60.4674 78.6099 61.0078 78.5123 61.7109H82.4381V61.4863C82.425 60.8613 82.2558 60.3796 81.9303 60.041C81.6047 59.696 81.1425 59.5234 80.5435 59.5234ZM97.7701 53.7812V63.1465C97.7701 64.7025 97.2818 65.9329 96.3053 66.8379C95.3352 67.7428 94.0071 68.1953 92.3209 68.1953C90.6607 68.1953 89.3424 67.7559 88.3658 66.877C87.3892 65.998 86.8912 64.7904 86.8717 63.2539V53.7812H89.8013V63.166C89.8013 64.097 90.0227 64.7773 90.4654 65.207C90.9146 65.6302 91.5331 65.8418 92.3209 65.8418C93.968 65.8418 94.8046 64.9759 94.8306 63.2441V53.7812H97.7701ZM109.499 62.8145C109.499 64.4421 109.128 65.7474 108.385 66.7305C107.65 67.707 106.654 68.1953 105.397 68.1953C104.329 68.1953 103.467 67.8242 102.809 67.082V72.0625H99.9869V57.4336H102.604L102.702 58.4688C103.385 57.6484 104.277 57.2383 105.378 57.2383C106.68 57.2383 107.692 57.7201 108.415 58.6836C109.137 59.6471 109.499 60.9753 109.499 62.668V62.8145ZM106.676 62.6094C106.676 61.6263 106.501 60.8678 106.149 60.334C105.804 59.8001 105.299 59.5332 104.635 59.5332C103.75 59.5332 103.141 59.8717 102.809 60.5488V64.875C103.154 65.5716 103.769 65.9199 104.655 65.9199C106.003 65.9199 106.676 64.8164 106.676 62.6094Z" fill="black"/>
</svg>
